<svg width="189" height="176" viewBox="0 0 189 176" fill="none" xmlns="http://www.w3.org/2000/svg">
<circle cx="86.5" cy="89.5" r="86.5" fill="#8C0303"/>
<circle cx="94" cy="86" r="80" fill="white"/>
<circle cx="93.5" cy="85.5" r="74.5" fill="#9E1C20"/>
<g clip-path="url(#clip0)">
<path d="M105.627 18H111.947C111.532 21.7929 111.173 25.5902 110.744 29.382C109.46 34.1858 107.927 38.9513 106.772 43.7747C105.698 48.0632 104.627 52.3539 103.548 56.6413C103.404 57.1073 103.301 57.5788 103.187 58.0493C102.655 60.1935 102.1 62.3345 101.586 64.4809C100.651 69.1567 99.689 73.8292 98.7744 78.5071C98.5652 79.4885 98.3834 80.4741 98.1771 81.4566C98.1338 81.6414 98.0905 81.8285 98.0473 82.0145C96.3464 82.102 94.6498 82.23 92.9489 82.2968C93.0427 81.7662 93.1364 81.2367 93.2187 80.705C93.4379 79.3976 93.6587 78.0903 93.8895 76.7852C94.4074 73.8215 94.9051 70.8568 95.4144 67.8931C95.5615 67.0912 95.6423 66.2805 95.9063 65.494C96.5541 63.4438 97.1831 61.3914 97.828 59.3413C98.0314 58.7144 98.229 58.0865 98.4036 57.4552C99.6226 53.5288 100.849 49.6047 102.069 45.6783C102.222 45.1707 102.421 44.6674 102.488 44.1467C103.537 35.4318 104.572 26.7148 105.627 18V18Z" fill="#D48D48"/>
<path d="M75.4739 19.2384C77.573 18.9748 79.6966 18.8358 81.8015 18.6061C83.0046 29.0899 84.1761 39.5748 85.3648 50.0587C85.5134 54.5441 85.6346 59.0295 85.7659 63.516C85.8784 64.3551 86.115 65.1822 86.2766 66.0169C86.884 68.8121 87.4812 71.6084 88.0944 74.4024C88.142 74.7503 88.23 75.0949 88.3136 75.4396C88.67 77.1276 89.0508 78.8135 89.4 80.5026C89.5038 81.0015 89.6149 81.4992 89.7202 81.9981C87.8881 81.822 86.0631 81.6075 84.2338 81.4139C84.166 81.0518 84.1054 80.6886 84.0549 80.3254C83.8991 79.3025 83.7404 78.2796 83.5687 77.2578C83.2196 75.2022 82.9498 73.1389 82.5834 71.0865C82.1362 67.996 81.5937 64.9152 81.1753 61.8225C79.9895 53.3823 78.8079 44.942 77.6221 36.5018C76.8632 30.7506 76.2342 24.9896 75.4739 19.2384V19.2384Z" fill="#D48D48"/>
<path d="M110.861 54.2958C114.799 52.3047 118.737 50.3136 122.678 48.3258C126.14 52.2653 129.601 56.207 133.072 60.1432C135.584 62.7185 138.158 65.261 140.661 67.8417C141.118 68.4292 141.735 68.9259 142.288 69.4587C142.602 69.7125 142.347 70.0396 142.222 70.3109C141.89 70.9235 141.594 71.5471 141.287 72.1674C141.013 71.7232 141.124 71.2277 141.13 70.7561C141.037 70.8732 140.948 70.9903 140.858 71.1084C139.476 69.6228 138.201 68.0813 136.861 66.5738C131.992 61.0075 127.146 55.4302 122.268 49.8694C117.872 52.0946 113.507 54.3559 109.127 56.5997C108.52 56.8929 107.801 56.9947 107.127 57.1621C105.812 57.4509 104.523 57.8152 103.188 58.0493C103.301 57.5789 103.404 57.1074 103.548 56.6413C103.597 56.5057 103.652 56.3722 103.707 56.2387C105.47 55.8536 107.231 55.4631 108.996 55.0824C109.7 54.9467 110.268 54.5922 110.861 54.2958V54.2958Z" fill="#A8A8A8"/>
<path d="M109.127 56.5997C113.507 54.3559 117.872 52.0946 122.268 49.8694C127.146 55.4302 131.992 61.0075 136.861 66.5737C138.201 68.0813 139.476 69.6227 140.858 71.1084C140.948 70.9902 141.037 70.8732 141.13 70.7561C141.124 71.2276 141.013 71.7232 141.287 72.1674C141.08 72.5776 140.829 72.9737 140.629 73.3861C138.357 77.9087 136.047 82.4204 133.788 86.9474C133.652 87.211 133.508 87.4725 133.368 87.735C124.856 85.4792 116.363 83.1763 107.86 80.9041C104.862 80.0453 101.892 79.1373 98.8912 78.2861C98.8624 78.3419 98.8047 78.4524 98.7744 78.5071C99.689 73.8292 100.651 69.1567 101.586 64.4809C102.1 62.3345 102.655 60.1935 103.187 58.0493C104.523 57.8152 105.812 57.4509 107.127 57.162C107.801 56.9947 108.52 56.8929 109.127 56.5997V56.5997Z" fill="#D4D4D4"/>
<path d="M42.6519 53.3439C42.9851 53.0639 43.5045 53.17 43.9416 53.1766C46.2989 53.2707 48.6577 53.3516 51.015 53.4337C51.3483 53.4085 51.4694 53.6765 51.6238 53.8472C52.5731 55.1753 53.593 56.4739 54.5293 57.8086C54.3865 57.9464 54.3432 58.1805 54.1037 58.2429C52.8991 56.9093 51.8402 55.498 50.663 54.1502C50.5028 53.9336 50.1537 53.9314 49.8681 53.9117C47.9883 53.8341 46.1085 53.7476 44.2301 53.6437C43.8551 53.6087 43.4641 53.6492 43.177 53.8472C40.8038 55.2628 38.3845 56.6336 36.02 58.0569C36.0401 59.1214 36.1873 60.1804 36.2551 61.2427C36.2796 61.8126 36.5162 62.4121 36.1801 62.9559C35.906 61.9122 35.8165 60.8477 35.6304 59.7942C35.5641 59.2844 35.4126 58.7757 35.4732 58.2626C35.7228 57.988 36.0935 57.7976 36.4138 57.5745C38.4999 56.1698 40.573 54.7552 42.6519 53.3439V53.3439Z" fill="#D4D4D4"/>
<path d="M43.177 53.8472C43.4641 53.6492 43.8551 53.6087 44.2301 53.6437C46.1085 53.7476 47.9883 53.8341 49.8681 53.9117C50.1537 53.9314 50.5028 53.9336 50.663 54.1502C51.8402 55.498 52.8991 56.9093 54.1037 58.2429C54.3432 58.1805 54.3865 57.9464 54.5293 57.8086C54.6534 57.9563 54.7904 58.0985 54.9261 58.2418C58.8689 57.6434 62.8016 57.0045 66.7443 56.4072C67.2623 56.335 67.773 56.1851 68.3053 56.2091C68.8939 56.335 69.409 56.6019 69.9586 56.7977C71.5888 57.4705 73.2407 58.1105 74.8709 58.7822C75.0844 58.8741 75.207 59.0404 75.3167 59.2012C77.4806 62.8016 79.685 66.3878 81.8663 69.9816C82.0669 70.3645 82.2963 70.7364 82.5833 71.0865C82.9498 73.1388 83.2196 75.2021 83.5687 77.2578C82.9397 77.2403 82.2977 77.2085 81.6846 77.3398C75.0801 78.7445 68.464 80.1175 61.8595 81.5266C61.395 81.613 60.9073 81.7968 60.4313 81.648C56.3269 80.6393 52.2268 79.6241 48.1239 78.6143C47.0679 78.3791 46.045 78.063 44.9774 77.8595C45.0034 77.924 45.0568 78.0553 45.0842 78.1198C45.3944 78.8649 45.6165 79.6285 45.9383 80.3713C46.5601 81.7038 46.9265 83.0954 47.5194 84.4366C47.7488 84.883 47.7301 85.3654 47.6305 85.8315C47.3723 87.2416 47.1905 88.6606 46.951 90.0729C46.8327 90.0467 46.7144 90.0204 46.5961 89.9952C46.5168 89.8454 46.4273 89.6988 46.3263 89.5576C46.4778 89.3892 46.6279 89.2218 46.7793 89.0555C45.0756 87.2515 43.2448 85.5197 41.4833 83.7485C40.8154 83.0516 40.0176 82.4171 39.517 81.6349C38.5605 80.1809 37.5607 78.7434 36.5739 77.3004C36.3604 76.9941 36.1859 76.667 36.1483 76.318C35.9868 75.0402 35.8238 73.7613 35.6405 72.4835C35.603 72.1674 35.5439 71.8228 35.7761 71.5394C36.5307 70.5406 37.2823 69.5407 38.0152 68.5331C38.1969 68.2815 38.4119 68.0386 38.7047 67.8537C40.1763 66.9293 41.6795 66.0333 43.1323 65.0925C43.19 64.1396 43.3126 63.19 43.3126 62.236L43.2924 62.2382C42.5451 62.2918 41.8021 62.3673 41.0577 62.4384C39.3785 62.5839 37.819 63.1167 36.1844 63.4099C36.183 63.2578 36.1801 63.1068 36.1801 62.9559C36.5162 62.4121 36.2796 61.8126 36.2551 61.2427C36.1873 60.1804 36.0401 59.1214 36.02 58.0569C38.3845 56.6336 40.8038 55.2628 43.177 53.8472V53.8472Z" fill="#FFFFEC"/>
<path d="M94.3901 58.3293C95.7318 58.0493 97.0475 57.6948 98.4036 57.4552C98.229 58.0865 98.0314 58.7144 97.828 59.3413C96.0174 59.757 94.2199 60.2045 92.4021 60.5983C92.682 59.9583 93.0109 59.326 93.4394 58.7352C93.6154 58.4617 94.0525 58.4223 94.3901 58.3293V58.3293Z" fill="#A8A8A8"/>
<path d="M92.4022 60.5983C94.2199 60.2044 96.0175 59.757 97.828 59.3413C97.1831 61.3914 96.5541 63.4438 95.9064 65.4939C95.6424 66.2805 95.5616 67.0912 95.4144 67.8931C94.9052 70.8568 94.4075 73.8215 93.8895 76.7852C92.0155 76.2918 90.2021 75.6736 88.3223 75.1934C88.3194 75.2546 88.3151 75.3783 88.3136 75.4395C88.23 75.0949 88.142 74.7503 88.0944 74.4024C88.2516 72.9988 88.1059 71.5875 88.1723 70.1818C88.2228 69.7277 88.4752 69.3098 88.6642 68.8832C89.9092 66.1208 91.1557 63.3595 92.4022 60.5983V60.5983Z" fill="#D4D4D4"/>
<path d="M43.2924 62.2382L43.3126 62.236C43.3126 63.19 43.19 64.1396 43.1323 65.0925C41.6795 66.0333 40.1763 66.9293 38.7048 67.8537C38.4119 68.0386 38.1969 68.2815 38.0152 68.5331C37.2823 69.5407 36.5307 70.5406 35.7762 71.5394C35.5439 71.8228 35.603 72.1674 35.6405 72.4835C35.8238 73.7613 35.9868 75.0402 36.1484 76.318C36.1859 76.667 36.3604 76.9941 36.5739 77.3004C37.5607 78.7434 38.5605 80.1809 39.517 81.6349C40.0176 82.4171 40.8154 83.0516 41.4833 83.7485C43.2448 85.5197 45.0756 87.2515 46.7793 89.0555C46.6279 89.2218 46.4778 89.3892 46.3264 89.5577C43.9777 87.1913 41.6752 84.7987 39.3395 82.4248C38.7509 81.8515 38.3917 81.1743 37.956 80.5332C37.278 79.5125 36.61 78.4863 35.9291 77.4667C35.7329 77.1626 35.4905 76.8661 35.4039 76.5303C35.2265 75.3236 35.303 74.0961 35 72.9015V71.7571C36.0243 70.5012 36.9476 69.1993 37.9185 67.9194C38.3729 67.3144 39.266 67.0354 39.9498 66.6066C40.7851 66.1022 41.743 65.7051 42.5047 65.1373C42.8654 64.1921 43.0573 63.2075 43.2924 62.2382V62.2382Z" fill="#D4D4D4"/>
<path d="M88.3223 75.1934C90.2021 75.6737 92.0155 76.2918 93.8895 76.7852C93.6587 78.0903 93.438 79.3976 93.2187 80.705C91.9463 80.6262 90.6666 80.6393 89.4 80.5026C89.0508 78.8134 88.67 77.1276 88.3136 75.4395C88.3151 75.3783 88.3194 75.2547 88.3223 75.1934V75.1934Z" fill="#FFFFEC"/>
<path d="M81.6846 77.3398C82.2977 77.2085 82.9397 77.2403 83.5687 77.2578C83.7404 78.2796 83.8991 79.3025 84.0549 80.3254C83.045 80.2499 81.9976 80.3046 81.0339 80.0245C79.4427 79.6372 77.8832 79.1613 76.2573 78.8627C76.5775 79.0738 76.9036 79.2828 77.2094 79.507C76.6223 79.3386 76.051 78.9469 75.3845 79.1023C71.9307 79.7357 68.4799 80.379 65.0247 81.0113C63.797 81.2596 62.5404 81.4281 61.3243 81.7125C62.0341 81.9204 62.7915 82.0047 63.5272 82.1392C65.0074 82.4007 66.4933 82.6403 67.9692 82.916C68.0615 82.9313 68.1553 82.9477 68.2491 82.963C68.9487 83.0921 69.709 83.1216 70.3265 83.4312C70.9959 83.7605 71.6754 84.08 72.3361 84.4202C72.6809 84.5996 73.0344 84.7703 73.3979 84.93C74.7208 85.4573 75.5662 86.4288 76.6252 87.1946C77.3681 87.723 78.0173 88.3203 78.7531 88.8542C79.4441 89.3531 80.0371 89.9241 80.7367 90.4175C82.6887 91.9284 84.5713 93.4906 86.5911 94.9511C87.5216 95.5604 88.3266 96.2683 89.2427 96.8886C90.0982 97.4749 90.8556 98.139 91.7241 98.7155C92.1295 98.9847 92.506 99.2779 92.8768 99.5754C92.9691 99.6487 93.0643 99.722 93.161 99.7942C94.1477 100.494 95.1331 101.197 96.065 101.938C96.1718 102.017 96.2814 102.096 96.394 102.173C97.0259 102.566 97.5755 103.027 98.1569 103.462C98.5493 103.787 99.1942 103.828 99.7309 103.733C100.35 103.621 100.961 103.488 101.577 103.372C101.622 103.422 101.712 103.523 101.755 103.572C103.081 102.959 104.385 102.319 105.74 101.745C107.628 101.087 109.537 100.463 111.434 99.8194C112.923 99.3019 114.433 98.8195 115.926 98.313C118.607 97.476 121.127 96.382 123.757 95.4685C129.314 93.9927 134.878 92.5355 140.437 91.0652C141.007 90.912 141.606 90.6724 142.223 90.8289C143.634 91.1166 145.065 91.3442 146.464 91.6658C144.376 92.1187 142.301 92.6066 140.2 93.0234C139.851 93.0825 139.505 93.146 139.165 93.2215C135.121 94.1262 131.066 94.9981 127.016 95.8865C125.573 96.161 124.232 96.6577 122.851 97.068C120.662 97.7528 118.454 98.4027 116.281 99.116C112.069 100.713 107.816 102.251 103.6 103.845C102.967 104.087 102.281 104.261 101.696 104.567C101.531 104.908 101.547 105.278 101.492 105.635C101.208 107.894 100.917 110.153 100.63 112.412C100.409 114.322 100.024 116.219 99.5895 118.105C98.8451 123.014 97.6953 127.882 96.707 132.761C96.5555 133.341 96.4618 133.921 96.5873 134.511C96.795 136.295 96.9797 138.089 97.1817 139.872C97.2379 140.342 97.3245 140.813 97.2437 141.294C96.9234 143.077 96.6046 144.872 96.3002 146.666C96.1199 147.585 96.2699 148.515 96.1213 149.434C96.0838 149.805 96.192 150.167 96.3348 150.506L96.3319 150.593C95.286 151.075 94.2718 151.589 93.2201 152.07C92.7008 152.3 92.2377 152.606 91.6765 152.781C91.9751 152.147 92.392 151.556 92.731 150.943C92.6445 150.724 92.5839 150.484 92.6445 150.254C93.2432 147.399 93.7813 144.543 94.3714 141.699C94.6282 140.66 94.4031 139.598 94.3872 138.559C94.3252 136.809 94.1477 135.058 94.1521 133.308C95.3062 127.619 96.4921 121.942 97.6577 116.258C97.8294 115.375 98.0747 114.498 98.1122 113.603C98.1973 111.122 98.3026 108.641 98.3964 106.161C98.4613 105.388 98.369 104.607 98.5724 103.842C98.268 103.744 97.9621 103.627 97.6231 103.637C96.368 103.63 95.1201 103.514 93.8679 103.454C91.4615 103.301 89.0465 103.201 86.6445 103C84.0029 102.952 81.3614 102.851 78.7199 102.754C78.0794 102.704 77.5961 103.071 77.0911 103.306C75.6124 104.025 74.138 104.747 72.6578 105.462C74.3082 107.326 75.9673 109.185 77.6004 111.058C78.6521 112.167 79.6158 113.323 80.6228 114.456C81.1623 115.259 81.9529 115.937 82.654 116.659C83.9712 118.029 85.2653 119.412 86.6041 120.77C86.4987 121.073 86.3501 121.37 86.0977 121.623C84.7531 123.065 83.5874 124.597 82.2212 126.027C81.4638 126.678 80.9113 127.444 80.2751 128.166C76.0625 133.122 71.8615 138.1 67.5912 143.034C67.5234 143.012 67.3849 142.979 67.3171 142.957C66.9319 142.848 66.5784 142.694 66.2308 142.53C66.7732 141.765 67.4844 141.086 68.0976 140.353C72.4169 135.529 76.7132 130.693 81.0253 125.865C82.3309 124.367 83.713 122.906 84.9883 121.392C82.2588 118.079 79.5408 114.759 76.8141 111.444C75.2431 109.557 73.7341 107.64 72.1269 105.772C71.9149 105.875 71.7042 105.98 71.4936 106.085C69.849 104.735 68.2721 103.338 66.6448 101.977C66.2062 101.619 65.8326 101.221 65.482 100.813C65.5455 100.997 65.6075 101.178 65.6696 101.364C64.4202 100.389 63.3296 99.3063 62.1437 98.2889C60.085 96.4531 58.0047 94.6305 55.9734 92.7762C55.5421 92.378 55.0025 92.0574 54.5452 91.6767C52.9842 90.3486 51.4391 89.0117 49.8637 87.6935C49.0905 87.0907 48.5365 86.3347 47.6305 85.8315C47.73 85.3654 47.7488 84.883 47.5194 84.4366C46.9265 83.0954 46.56 81.7038 45.9383 80.3713C45.9325 80.2914 45.9224 80.1306 45.9181 80.0508C46.9957 81.1185 47.9003 82.2792 48.9087 83.3853C49.9806 84.6062 51.0626 85.8227 52.1258 87.048C52.5543 87.5578 53.192 87.9287 53.7676 88.3345C56.2576 90.0576 58.7462 91.7818 61.2377 93.5026C61.7902 93.8932 62.2028 94.3778 62.6587 94.8307C65.7691 97.9815 68.8954 101.121 71.9956 104.277C72.0966 104.369 72.2019 104.468 72.3477 104.526C72.8165 104.347 73.2147 104.086 73.6432 103.861C75.3051 102.97 76.9743 102.086 78.629 101.186C78.8353 101.081 79.0589 100.957 79.3215 100.986C84.7863 101.344 90.2497 101.728 95.7174 102.056C93.9948 100.8 92.1713 99.6258 90.417 98.3972C87.5634 96.4389 84.6911 94.4938 81.8505 92.5257C78.8469 90.0981 75.8865 87.642 72.893 85.2079C72.4717 84.8698 72.1096 84.4344 71.4821 84.3064C62.6861 82.2344 53.8772 80.1952 45.0842 78.1198C45.0568 78.0553 45.0034 77.924 44.9774 77.8595C46.045 78.063 47.0679 78.3791 48.1239 78.6143C52.2268 79.6241 56.3269 80.6393 60.4313 81.648C60.9073 81.7968 61.395 81.613 61.8595 81.5266C68.464 80.1175 75.0801 78.7445 81.6846 77.3398V77.3398Z" fill="#A8A8A8"/>
<path d="M45.0842 78.1198C53.8772 80.1952 62.6861 82.2344 71.482 84.3064C72.1096 84.4344 72.4717 84.8699 72.893 85.2079C75.8865 87.6421 78.8468 90.0981 81.8505 92.5257C84.6911 94.4938 87.5634 96.4389 90.417 98.3972C92.1713 99.6258 93.9948 100.8 95.7173 102.056C90.2496 101.728 84.7863 101.344 79.3215 100.986C79.0589 100.957 78.8353 101.081 78.629 101.186C76.9743 102.086 75.3051 102.97 73.6431 103.861C73.2147 104.086 72.8165 104.347 72.3476 104.526C72.2019 104.468 72.0966 104.369 71.9956 104.277C68.8953 101.121 65.7691 97.9815 62.6587 94.8308C62.2028 94.3778 61.7902 93.8932 61.2377 93.5026C58.7462 91.7818 56.2576 90.0576 53.7676 88.3346C53.192 87.9287 52.5543 87.5578 52.1258 87.048C51.0626 85.8227 49.9806 84.6062 48.9087 83.3853C47.9003 82.2792 46.9957 81.1185 45.9181 80.0508C45.9224 80.1306 45.9325 80.2914 45.9383 80.3713C45.6165 79.6285 45.3944 78.8649 45.0842 78.1198Z" fill="#D4D4D4"/>
<path d="M98.8912 78.2862C101.892 79.1373 104.862 80.0453 107.86 80.9041C116.363 83.1764 124.856 85.4792 133.368 87.7351C133.508 87.4725 133.652 87.211 133.788 86.9474C134.668 86.7559 135.509 86.4792 136.364 86.2341C139.181 85.4114 141.997 84.5931 144.811 83.7726C146.209 83.3251 147.685 83.0177 149.027 82.4729C150.021 82.1228 151.025 81.7859 152 81.4052V81.6207C151.16 83.1556 150.523 84.7473 149.762 86.3052C148.968 88.0742 148.099 89.8246 147.319 91.5991C147.033 91.6199 146.747 91.6439 146.465 91.6658C145.065 91.3442 143.634 91.1166 142.223 90.8289C141.606 90.6725 141.007 90.9121 140.437 91.0652C134.878 92.5356 129.314 93.9928 123.757 95.4686C121.127 96.3821 118.607 97.4761 115.926 98.313C115.843 98.3141 115.675 98.3141 115.592 98.3141C117.503 97.0768 119.526 95.9434 121.476 94.7422C123.398 93.6011 125.27 92.4119 127.261 91.3398C126.994 91.3234 126.729 91.3103 126.468 91.2654C126.726 90.9832 127.264 90.9919 127.657 90.8716C127.661 90.9372 127.671 91.0696 127.677 91.1352C128.27 90.8595 128.643 90.4001 129.199 90.0926C130.226 89.4767 131.296 88.898 132.253 88.2208C130.685 88.9286 129.248 89.7896 127.739 90.5663C125.911 90.0686 124.061 89.62 122.221 89.1529C121.437 88.9647 120.823 88.5348 120.126 88.2241C118.985 87.7033 117.856 87.1684 116.718 86.6465C116.055 86.3457 115.427 85.9858 114.691 85.791C112.901 85.3195 111.106 84.8589 109.32 84.3776C108.952 84.2835 108.57 84.2244 108.194 84.1566C108.163 84.138 108.101 84.0997 108.069 84.08C107.676 83.7715 107.264 83.475 106.824 83.2048C106.529 83.2989 106.234 83.3963 105.947 83.5046L105.914 83.5166C103.361 82.777 100.749 82.1557 98.1771 81.4566C98.3834 80.4742 98.5652 79.4885 98.7744 78.5072C98.8047 78.4525 98.8624 78.342 98.8912 78.2862V78.2862Z" fill="#FFFFEC"/>
<path d="M76.2573 78.8627C77.8832 79.1613 79.4427 79.6372 81.034 80.0245C81.9977 80.3046 83.045 80.2499 84.0549 80.3254C84.1054 80.6886 84.166 81.0518 84.2338 81.4139C86.0631 81.6075 87.888 81.8219 89.7202 81.9981C89.6149 81.4992 89.5038 81.0014 89.4 80.5026C90.6666 80.6393 91.9463 80.6262 93.2187 80.705C93.1365 81.2367 93.0427 81.7662 92.9489 82.2967C94.6498 82.23 96.3464 82.102 98.0473 82.0145C98.0906 81.8285 98.1338 81.6414 98.1771 81.4565C100.749 82.1556 103.361 82.777 105.914 83.5166C104.785 83.9487 103.609 84.3075 102.463 84.7156C101.331 84.104 100.266 83.4247 99.1596 82.788C98.8393 82.602 98.4281 82.5659 98.0415 82.5276C97.1817 82.4521 96.3219 82.3164 95.4519 82.3711C94.1723 82.4423 92.8941 82.5166 91.6144 82.5812C90.9436 82.5801 90.2757 82.5177 89.6106 82.4598C88.0121 82.3635 86.4295 81.927 84.8181 82.1414C84.1775 82.1928 83.5399 82.2727 82.8964 82.2924C82.5574 82.3263 82.2905 82.1425 82.0279 82.0134C80.8839 81.3811 79.7125 80.7761 78.5656 80.1481C78.1328 79.9118 77.6826 79.693 77.2094 79.507C76.9036 79.2828 76.5776 79.0738 76.2573 78.8627V78.8627Z" fill="#D4D4D4"/>
<path d="M75.3845 79.1023C76.051 78.9469 76.6223 79.3386 77.2094 79.507C77.6826 79.693 78.1328 79.9118 78.5655 80.1481C79.7125 80.7761 80.8839 81.3811 82.0279 82.0134C82.2905 82.1425 82.5574 82.3263 82.8964 82.2924C83.5399 82.2727 84.1775 82.1928 84.8181 82.1414C86.4295 81.927 88.0121 82.3635 89.6106 82.4598C89.3826 82.579 89.1561 82.6994 88.9311 82.8219C89.6019 83.1895 90.4574 83.2376 91.2595 83.231C91.639 83.2387 91.9881 83.1216 92.3199 82.9958C92.0862 82.8558 91.8496 82.719 91.6144 82.5812C92.8941 82.5167 94.1723 82.4423 95.4519 82.3712C96.3218 82.3165 97.1817 82.4521 98.0415 82.5276C98.4281 82.5659 98.8393 82.602 99.1596 82.788C100.266 83.4247 101.331 84.1041 102.463 84.7156C103.609 84.3075 104.785 83.9487 105.914 83.5166L105.947 83.5045C106.646 83.7146 107.365 83.8831 108.069 84.08C108.101 84.0997 108.163 84.138 108.194 84.1566C109.198 84.8578 110.284 85.4858 111.301 86.1761C111.88 86.5295 112.373 86.9813 113.058 87.2209C117.49 88.5534 121.977 89.7918 126.315 91.296C121.968 93.6624 117.552 95.9565 113.176 98.2911C112.296 98.7692 111.383 99.2122 110.534 99.722C110.832 99.7538 111.134 99.7855 111.434 99.8194C109.537 100.463 107.628 101.087 105.74 101.745C104.385 102.319 103.081 102.959 101.755 103.572C101.712 103.523 101.622 103.422 101.577 103.372C100.961 103.488 100.35 103.621 99.7309 103.733C99.1942 103.828 98.5493 103.787 98.1569 103.462C97.5755 103.027 97.0259 102.566 96.394 102.173C97.4284 101.809 98.2752 101.199 98.9114 100.489C99.0918 100.295 99.1365 100.058 99.1927 99.8325C98.9302 99.8741 98.6575 99.9037 98.4195 100.002C97.401 100.452 96.6205 101.158 96.0651 101.939C95.1331 101.197 94.1478 100.494 93.161 99.7943C94.2112 99.3752 95.1648 98.791 95.7909 98.0176C95.9381 97.8393 95.9641 97.6248 96.016 97.4246C95.7203 97.4728 95.4144 97.5133 95.1533 97.6358C94.1679 98.1007 93.399 98.7943 92.8768 99.5754C92.506 99.2779 92.1295 98.9847 91.7241 98.7156C90.8556 98.139 90.0982 97.475 89.2427 96.8886C88.3266 96.2683 87.5216 95.5605 86.5911 94.9511C84.5714 93.4906 82.6887 91.9284 80.7368 90.4175C80.0371 89.9242 79.4441 89.3531 78.7531 88.8542C78.0173 88.3203 77.3681 87.723 76.6252 87.1946C75.5663 86.4288 74.7209 85.4573 73.3979 84.93C73.8293 84.3929 74.5968 83.9585 74.5939 83.2759C73.6475 83.3776 72.9594 83.9192 72.3361 84.4202C71.6754 84.08 70.9959 83.7605 70.3265 83.4312C69.709 83.1216 68.9488 83.0921 68.2491 82.963C68.6415 82.7606 69.0411 82.5659 69.4551 82.3887C69.7076 82.4477 69.9904 82.5976 70.2515 82.4718C70.6929 82.3165 70.8906 81.962 71.0536 81.6382C70.9209 81.5736 70.7896 81.5102 70.6583 81.4478C70.8127 81.1678 70.9468 80.8822 71.0435 80.5879C70.7218 80.6361 70.3871 80.6853 70.1101 80.8286C69.1161 81.3176 68.2606 82.0254 67.9692 82.916C66.4933 82.6403 65.0074 82.4007 63.5272 82.1392C62.7915 82.0047 62.0341 81.9204 61.3243 81.7126C62.5404 81.4281 63.797 81.2596 65.0247 81.0113C68.4799 80.379 71.9307 79.7357 75.3845 79.1023V79.1023Z" fill="white"/>
<path d="M70.1101 80.8286C70.3871 80.6853 70.7218 80.6361 71.0435 80.5879C70.9469 80.8822 70.8127 81.1677 70.6583 81.4478C70.7896 81.5102 70.9209 81.5736 71.0536 81.6382C70.8906 81.962 70.693 82.3165 70.2515 82.4718C69.9904 82.5976 69.7076 82.4477 69.4551 82.3887C69.0411 82.5659 68.6415 82.7606 68.2491 82.963C68.1553 82.9477 68.0615 82.9313 67.9692 82.916C68.2606 82.0254 69.1161 81.3176 70.1101 80.8286V80.8286Z" fill="#EBEBCA"/>
<path d="M77.8846 80.6153C78.0981 80.5682 78.189 80.7674 78.0938 80.8932C77.9062 81.3712 77.4302 81.7443 76.9829 82.0944C76.491 82.4226 75.9644 82.7978 75.2835 82.8558C75.0584 82.6042 75.3643 82.3274 75.5287 82.1108C76.1303 81.4828 76.882 80.8549 77.8846 80.6153V80.6153Z" fill="#EBEBCA"/>
<path d="M89.6106 82.4598C90.2756 82.5177 90.9436 82.5801 91.6144 82.5812C91.8496 82.719 92.0862 82.8558 92.3199 82.9958C91.9881 83.1216 91.6389 83.2387 91.2595 83.231C90.4574 83.2376 89.6019 83.1895 88.9311 82.8219C89.1561 82.6993 89.3826 82.579 89.6106 82.4598V82.4598Z" fill="#EBEBCA"/>
<path d="M80.1972 83.5691C80.7238 83.1862 81.2951 82.7956 82.0207 82.6556C82.0467 82.8273 82.1261 83.0111 81.9847 83.1698C81.5086 83.8305 80.7786 84.3808 79.9519 84.7933C79.7168 84.93 79.4182 84.9322 79.1368 84.9486C79.2061 84.3918 79.7226 83.9607 80.1972 83.5691V83.5691Z" fill="#EBEBCA"/>
<path d="M85.9347 84.0811C85.7471 83.4991 86.5204 83.0341 87.2186 82.9838C87.4163 83.568 86.6329 84.0329 85.9347 84.0811Z" fill="#EBEBCA"/>
<path d="M105.947 83.5045C106.234 83.3962 106.529 83.2989 106.824 83.2048C107.264 83.475 107.676 83.7715 108.069 84.08C107.365 83.8831 106.646 83.7146 105.947 83.5045Z" fill="#D4D4D4"/>
<path d="M72.3361 84.4202C72.9594 83.9192 73.6475 83.3776 74.5939 83.2759C74.5968 83.9586 73.8293 84.3929 73.3979 84.93C73.0344 84.7703 72.6809 84.5996 72.3361 84.4202V84.4202Z" fill="#EBEBCA"/>
<path d="M88.3684 84.2889C88.8373 83.9892 89.3466 83.6347 89.9929 83.615C90.0939 83.894 89.8299 84.15 89.7029 84.4005C90.7662 84.3305 91.9996 84.2167 92.897 84.7517C92.6488 84.9038 92.3488 84.9924 92.0299 85.0011C91.1586 85.0394 90.2381 84.9782 89.4865 84.6139C88.794 85.1182 88.1102 85.8227 87.0628 85.8446C87.1696 85.2057 87.7856 84.7167 88.3684 84.2889Z" fill="#EBEBCA"/>
<path d="M98.5984 84.9596C98.4844 84.464 99.0283 84.0034 99.6385 83.9038C99.8535 83.8524 100.015 84.0428 99.953 84.1894C99.8131 84.6467 99.2288 85.0055 98.5984 84.9596Z" fill="#EBEBCA"/>
<path d="M76.0005 85.2713C75.875 84.7079 76.6757 84.0318 77.4287 84.2955C77.283 84.8173 76.7478 85.2801 76.0005 85.2713Z" fill="#EBEBCA"/>
<path d="M108.194 84.1566C108.57 84.2244 108.952 84.2835 109.32 84.3775C111.106 84.8589 112.901 85.3195 114.691 85.791C115.427 85.9857 116.055 86.3457 116.718 86.6465C117.856 87.1683 118.985 87.7033 120.126 88.2241C120.823 88.5348 121.437 88.9647 122.221 89.1529C124.061 89.62 125.911 90.0686 127.739 90.5663C129.248 89.7896 130.685 88.9286 132.253 88.2208C131.296 88.898 130.226 89.4767 129.199 90.0926C128.643 90.4 128.27 90.8595 127.677 91.1352C127.671 91.0696 127.661 90.9372 127.657 90.8715C127.264 90.9919 126.726 90.9831 126.468 91.2654C126.729 91.3102 126.994 91.3234 127.261 91.3398C125.27 92.4119 123.398 93.6011 121.476 94.7421C119.526 95.9433 117.503 97.0767 115.592 98.3141C115.675 98.3141 115.843 98.3141 115.926 98.313C114.433 98.8195 112.923 99.3019 111.434 99.8194C111.134 99.7855 110.832 99.7538 110.534 99.722C111.383 99.2122 112.296 98.7692 113.176 98.2911C117.552 95.9565 121.968 93.6624 126.315 91.296C121.977 89.7918 117.49 88.5534 113.058 87.2209C112.373 86.9813 111.88 86.5295 111.301 86.1761C110.284 85.4858 109.198 84.8578 108.194 84.1566V84.1566Z" fill="#D4D4D4"/>
<path d="M93.2576 85.3687C93.7958 84.9705 94.406 84.5471 95.1922 84.4968C95.1692 84.6883 95.1706 84.895 95.0278 85.0646C94.5402 85.6958 93.8361 86.2297 93.0109 86.6082C92.7744 86.7286 92.4901 86.7647 92.2088 86.7559C92.2391 86.1881 92.7845 85.7637 93.2576 85.3687V85.3687Z" fill="#EBEBCA"/>
<path d="M100.132 85.0011C100.533 84.7419 101 84.5253 101.539 84.4968C101.541 84.7473 101.465 84.9968 101.263 85.1992C100.7 85.826 99.9602 86.3916 99.0499 86.7198C98.8234 86.8402 98.4483 86.7286 98.5969 86.4879C98.8797 85.8851 99.5087 85.4136 100.132 85.0011V85.0011Z" fill="#EBEBCA"/>
<path d="M105.68 86.489C106.195 86.14 106.741 85.7319 107.472 85.7002C107.455 85.9245 107.412 86.1564 107.234 86.3457C106.734 86.932 106.061 87.4386 105.287 87.816C105.057 87.9374 104.785 87.9823 104.51 87.9418C104.59 87.3478 105.167 86.9014 105.68 86.489V86.489Z" fill="#EBEBCA"/>
<path d="M46.951 90.0729C47.1905 88.6606 47.3723 87.2417 47.6305 85.8315C48.5365 86.3347 49.0905 87.0907 49.8637 87.6935C51.4391 89.0117 52.9842 90.3486 54.5452 91.6767C55.0025 92.0575 55.5421 92.378 55.9734 92.7762C58.0047 94.6306 60.085 96.4532 62.1437 98.2889C63.3295 99.3063 64.4202 100.389 65.6695 101.364C65.6075 101.178 65.5455 100.997 65.482 100.813C65.8326 101.221 66.2062 101.619 66.6448 101.977C68.2721 103.338 69.8489 104.735 71.4936 106.085C71.7042 105.98 71.9148 105.875 72.1269 105.772C73.734 107.64 75.2431 109.557 76.8141 111.444C79.5408 114.759 82.2587 118.079 84.9882 121.392C83.7129 122.906 82.3309 124.367 81.0253 125.865C76.7131 130.693 72.4169 135.529 68.0976 140.353C67.4844 141.086 66.7732 141.765 66.2307 142.53C63.6311 141.393 60.9506 140.353 58.3249 139.248C58.0494 139.161 57.9441 138.931 57.8532 138.734C56.9818 136.71 56.0758 134.686 55.1929 132.662C54.9289 131.995 54.5336 131.361 54.4197 130.671C53.8888 126.591 53.2583 122.519 52.8573 118.431C52.5197 115.338 52.1778 112.246 51.8387 109.155C51.7839 108.632 51.7579 108.106 51.6108 107.593C51.0857 105.876 50.5201 104.165 50.0181 102.443C52.5687 103.629 55.0689 104.875 57.6267 106.053C57.9066 105.07 58.1504 104.081 58.4187 103.096C55.2853 101.773 52.0883 100.537 48.9404 99.2341C48.8135 98.4016 48.4701 97.6019 48.2407 96.7846C47.8974 95.7924 47.6882 94.7706 47.254 93.798C47.0981 93.519 46.8601 93.2488 46.8861 92.9348C46.9178 92.2073 46.9496 91.4809 46.9135 90.7534C46.8111 90.8026 46.7086 90.8519 46.6062 90.9033C46.6076 90.5991 46.6149 90.2972 46.5961 89.9953C46.7144 90.0204 46.8327 90.0467 46.951 90.0729V90.0729Z" fill="#D4D4D4"/>
<path d="M82.517 86.1892C82.7536 86.0569 83.0551 86.0656 83.335 86.0459C83.2109 86.7625 82.4362 87.2712 81.7812 87.7427C81.9024 87.8084 82.0236 87.8762 82.1462 87.944C82.0351 88.409 81.4898 88.9232 80.8132 88.84C80.6776 88.6639 80.8478 88.4462 80.8637 88.2558C80.6762 88.235 80.4901 88.2153 80.304 88.1967C80.3645 87.9845 80.4352 87.7679 80.6112 87.5918C81.1191 87.0382 81.7625 86.5503 82.517 86.1892V86.1892Z" fill="#EBEBCA"/>
<path d="M99.6732 86.6181C100.322 86.3467 101.101 86.4091 101.805 86.4912C102.231 86.5327 102.634 86.6607 102.978 86.8544C102.778 86.9583 102.569 87.0688 102.319 87.0841C101.566 87.1454 100.783 87.1148 100.063 86.9244C99.8852 86.8609 99.6097 86.8106 99.6732 86.6181V86.6181Z" fill="#EBEBCA"/>
<path d="M89.5154 87.6694C89.9006 87.4386 90.3348 87.2023 90.8542 87.2307C90.7936 87.7493 90.3088 88.1333 89.9309 88.5359C90.6363 88.63 91.4355 88.6124 91.9996 89.003C91.1946 89.4603 90.1444 89.2142 89.2384 89.1332C88.7522 89.0872 88.266 89.6693 87.8549 89.34C88.103 88.6485 88.8099 88.1158 89.5154 87.6694Z" fill="#EBEBCA"/>
<path d="M97.9636 87.8401C98.3776 87.5775 98.8177 87.3084 99.3558 87.2143C99.7222 87.2799 99.4856 87.5655 99.3962 87.7296C98.9287 88.3696 98.2175 88.9013 97.401 89.2874C97.1615 89.4143 96.8672 89.4384 96.5859 89.4636C96.6825 88.793 97.3461 88.2788 97.9636 87.8401Z" fill="#EBEBCA"/>
<path d="M94.2401 88.1913C94.4046 88.1508 94.7104 88.049 94.7941 88.2285C94.7407 88.6015 94.4248 88.91 94.1218 89.1934C93.6573 89.6069 93.1206 89.9832 92.5031 90.2633C92.3026 90.3738 92.0516 90.3421 91.8208 90.3465C91.8785 90.1375 91.9246 89.9198 92.0891 89.7415C92.6301 89.1069 93.35 88.5424 94.2401 88.1913V88.1913Z" fill="#EBEBCA"/>
<path d="M113.42 88.2842C113.658 88.1584 113.954 88.1442 114.233 88.1103C114.214 88.7962 113.471 89.2929 112.878 89.7447C112.413 90.0007 111.918 90.4351 111.294 90.3311C111.196 90.1069 111.376 89.8891 111.517 89.7032C112.006 89.1343 112.664 88.6496 113.42 88.2842Z" fill="#EBEBCA"/>
<path d="M110.28 88.8739C110.522 88.5851 110.961 88.4626 111.373 88.3707C111.627 88.9155 110.86 89.5117 110.15 89.4559C109.977 89.2688 110.144 89.0413 110.28 88.8739V88.8739Z" fill="#EBEBCA"/>
<path d="M103.929 89.1901C104.154 89.0796 104.421 89.0457 104.678 88.9986C104.675 89.1616 104.724 89.34 104.598 89.4877C104.168 90.0795 103.518 90.5663 102.808 90.9678C102.515 91.1451 102.153 91.2271 101.797 91.2971C101.792 91.1265 101.736 90.9449 101.872 90.7939C102.369 90.1419 103.092 89.5927 103.929 89.1901V89.1901Z" fill="#EBEBCA"/>
<path d="M99.2562 89.4045C99.1422 89.1715 99.5808 89.166 99.7756 89.1157C100.706 89.0424 101.728 89.0796 102.541 89.4701C102.133 89.8169 101.474 89.7491 100.922 89.7502C100.351 89.7185 99.7179 89.69 99.2562 89.4045Z" fill="#EBEBCA"/>
<path d="M84.9479 89.4548C85.1715 89.3509 85.4398 89.3487 85.6908 89.3159C85.6591 89.5347 85.6288 89.7666 85.4528 89.9526C84.9349 90.5652 84.241 91.1046 83.3956 91.458C83.1965 91.5225 82.9556 91.6286 82.7421 91.5345C82.6569 91.3114 82.8286 91.0947 82.97 90.9077C83.4764 90.3213 84.1486 89.8115 84.9479 89.4548V89.4548Z" fill="#EBEBCA"/>
<path d="M86.5031 89.9767C87.0426 89.678 87.7467 89.6999 88.3785 89.7502C88.9094 89.8049 89.5096 89.8563 89.8703 90.1955C89.2355 90.4711 88.4795 90.4252 87.7798 90.3705C87.3139 90.3311 86.8493 90.2261 86.5031 89.9767V89.9767Z" fill="#EBEBCA"/>
<path d="M116.027 91.3672C116.668 90.7282 117.464 90.0948 118.514 89.8738C118.536 90.0434 118.594 90.2261 118.46 90.3814C117.981 91.0455 117.252 91.5958 116.42 92.0082C116.195 92.1351 115.906 92.1472 115.641 92.1778C115.661 91.8835 115.772 91.5947 116.027 91.3672Z" fill="#EBEBCA"/>
<path d="M107.958 90.9427C108.227 90.6867 108.729 90.3749 109.143 90.6462C108.934 91.0849 108.534 91.5783 107.837 91.5816C107.544 91.3989 107.803 91.1254 107.958 90.9427V90.9427Z" fill="#EBEBCA"/>
<path d="M46.6062 90.9033C46.7087 90.8518 46.8111 90.8026 46.9135 90.7534C46.9496 91.4809 46.9179 92.2073 46.8861 92.9348C46.8601 93.2488 47.0982 93.519 47.254 93.798C45.0337 94.4686 42.8207 95.1524 40.6221 95.8646C43.3934 96.9903 46.1734 98.1029 48.9405 99.2341C52.0884 100.537 55.2853 101.773 58.4188 103.096C58.1504 104.081 57.9066 105.07 57.6267 106.053C55.0689 104.875 52.5688 103.629 50.0181 102.443C45.4189 100.256 40.8298 98.057 36.2335 95.8668C38.9125 94.4916 41.655 93.1886 44.3485 91.8288C45.0395 91.4349 45.921 91.308 46.6062 90.9033V90.9033Z" fill="#A8A8A8"/>
<path d="M85.5221 91.8638C86.0818 91.3901 86.7527 90.9656 87.5678 90.7764C87.7625 91.1757 87.3586 91.528 87.0686 91.8288C86.4915 92.3616 85.7875 92.8714 84.9032 93.0825C84.8483 93.0486 84.7373 92.9819 84.6824 92.948C84.8123 92.5312 85.1585 92.1811 85.5221 91.8638V91.8638Z" fill="#EBEBCA"/>
<path d="M119.113 91.6253C119.644 91.2676 120.227 90.8245 120.993 90.8442C120.828 91.6352 119.987 92.2172 119.204 92.6942C118.853 92.8583 118.429 93.1602 117.999 92.9972C118.092 92.4447 118.638 92.0181 119.113 91.6253Z" fill="#EBEBCA"/>
<path d="M93.148 92.0673C93.7092 91.6352 94.3411 91.1921 95.1562 91.0838C95.1677 91.2741 95.1951 91.4798 95.0466 91.6494C94.5633 92.2795 93.8607 92.8101 93.0528 93.204C92.809 93.3298 92.5075 93.3495 92.2261 93.3889C92.2132 92.8539 92.7195 92.4458 93.148 92.0673Z" fill="#EBEBCA"/>
<path d="M105.942 91.2698C106.155 91.156 106.418 91.132 106.667 91.1013C106.729 91.6757 106.122 92.0958 105.672 92.4951C105.132 92.8846 104.554 93.3342 103.772 93.3944C103.786 93.2193 103.759 93.0323 103.889 92.878C104.378 92.2205 105.103 91.6724 105.942 91.2698Z" fill="#EBEBCA"/>
<path d="M99.4885 91.6286C99.7367 91.4973 100.038 91.4536 100.332 91.4218C100.344 91.9338 99.8578 92.331 99.4539 92.6996C98.9143 93.1154 98.3026 93.5847 97.5077 93.67C97.2466 93.5705 97.476 93.3462 97.5308 93.2007C97.9766 92.5552 98.6806 92.0192 99.4885 91.6286V91.6286Z" fill="#EBEBCA"/>
<path d="M86.9532 93.1493C87.7048 92.727 88.7147 92.8987 89.5601 93.0245C89.99 93.1219 90.4084 92.9589 90.8325 92.9217C90.8469 93.4589 90.2569 94.0015 89.5182 93.9763C89.5038 93.8822 89.475 93.6952 89.4605 93.6011C88.6108 93.542 87.637 93.6109 86.9532 93.1493Z" fill="#EBEBCA"/>
<path d="M107.022 93.2652C107.932 92.8823 109.069 93.0158 110.014 93.2608C110.35 93.3757 110.712 93.2707 111.056 93.239C111.109 93.7553 110.526 94.2104 109.879 94.2837C109.527 94.2268 109.792 93.8976 109.799 93.7203C108.87 93.6799 107.753 93.7958 107.022 93.2652V93.2652Z" fill="#EBEBCA"/>
<path d="M139.165 93.2215C139.505 93.146 139.851 93.0825 140.2 93.0235C139.749 94.6809 139.225 96.3273 138.742 97.9804C138.344 99.4387 137.788 100.874 137.555 102.355C135.764 111.653 133.987 120.952 132.199 130.245C132.021 131.153 131.881 132.061 131.581 132.947C131.399 133.461 131.341 133.997 131.041 134.479C130.69 134.741 130.216 134.883 129.802 135.08C118.683 140.113 107.543 145.112 96.4315 150.156C96.3969 150.276 96.3637 150.396 96.3348 150.506C96.192 150.167 96.0838 149.806 96.1213 149.434C100.702 147.464 105.225 145.419 109.783 143.417C116.586 140.408 123.383 137.389 130.194 134.391C130.562 134.205 131.136 134.074 131.156 133.68C132.931 123.928 134.607 114.164 136.457 104.42C136.774 102.892 136.943 101.344 137.458 99.8446C138.093 97.6533 138.794 95.4729 139.398 93.2773C139.339 93.263 139.222 93.2357 139.165 93.2215V93.2215Z" fill="#D4D4D4"/>
<path d="M91.2523 94.9051C91.828 94.2017 92.6459 93.5256 93.7005 93.2587C94.6339 93.565 95.7332 93.2652 96.6291 93.682C96.8239 93.7313 96.7561 93.9774 96.5541 93.9873C95.6539 94.1831 94.6916 94.0628 93.8102 93.868C93.109 94.5036 92.3805 95.2421 91.274 95.4642C90.8383 95.4434 91.16 95.0725 91.2523 94.9051V94.9051Z" fill="#EBEBCA"/>
<path d="M111.992 93.3451C112.213 93.2357 112.762 93.1526 112.638 93.484C112.239 94.217 111.444 94.7936 110.6 95.241C110.34 95.3986 110.008 95.439 109.69 95.4708C109.711 95.3012 109.69 95.1207 109.821 94.9752C110.343 94.3035 111.099 93.7313 111.992 93.3451Z" fill="#EBEBCA"/>
<path d="M127.016 95.8865C131.066 94.9981 135.121 94.1262 139.165 93.2215C139.222 93.2357 139.339 93.263 139.398 93.2773C138.794 95.4729 138.093 97.6533 137.458 99.8446C136.943 101.344 136.774 102.892 136.457 104.42C134.607 114.164 132.931 123.928 131.156 133.68C131.136 134.074 130.562 134.205 130.194 134.391C123.383 137.389 116.586 140.408 109.783 143.417C105.225 145.419 100.702 147.464 96.1213 149.434C96.2699 148.515 96.1199 147.585 96.3002 146.666C96.6046 144.872 96.9235 143.077 97.2437 141.294C97.3245 140.813 97.238 140.342 97.1817 139.872C96.9797 138.089 96.7951 136.295 96.5873 134.511C96.4618 133.921 96.5556 133.341 96.7071 132.761C97.6953 127.882 98.8451 123.014 99.5895 118.105C100.024 116.219 100.409 114.322 100.63 112.412C100.917 110.153 101.208 107.894 101.492 105.635C101.547 105.278 101.531 104.908 101.696 104.567C102.282 104.261 102.967 104.087 103.6 103.845C107.816 102.251 112.069 100.713 116.281 99.116C118.454 98.4027 120.662 97.7528 122.851 97.068C124.232 96.6577 125.573 96.1611 127.016 95.8865V95.8865Z" fill="#FFFFEC"/>
<path d="M116.433 94.519C116.402 93.9774 117.076 93.5136 117.77 93.5059C117.881 94.0376 117.167 94.706 116.433 94.519Z" fill="#EBEBCA"/>
<path d="M40.6221 95.8646C42.8207 95.1524 45.0337 94.4686 47.254 93.798C47.6882 94.7706 47.8974 95.7924 48.2408 96.7846C48.4702 97.6018 48.8135 98.4016 48.9405 99.2341C46.1734 98.1029 43.3934 96.9903 40.6221 95.8646Z" fill="white"/>
<path d="M118.783 95.5331C119.964 94.9391 121.058 94.2225 122.356 93.7772C121.882 94.2291 121.157 94.4588 120.563 94.8034C119.72 95.2082 118.957 95.7191 118.043 96.032C118.252 95.8361 118.501 95.6666 118.783 95.5331V95.5331Z" fill="#BFBFBF"/>
<path d="M96.0348 94.5737C96.7114 94.275 97.5308 94.3395 98.2723 94.4238C98.6763 94.4632 99.0543 94.5868 99.3817 94.7695C98.7902 95.171 97.9347 95.0277 97.212 95.032C96.9047 95.3635 96.544 95.8329 95.9179 95.765C95.5659 95.4992 96.1444 95.1316 96.3377 94.892C96.2353 94.7848 96.1357 94.6787 96.0348 94.5737V94.5737Z" fill="#EBEBCA"/>
<path d="M105.771 95.7311C106.345 95.2738 106.995 94.8001 107.85 94.694C107.86 94.8844 107.888 95.0889 107.739 95.2574C107.262 95.8602 106.601 96.3788 105.832 96.7693C105.569 96.9116 105.249 96.9575 104.94 97.0045C104.861 96.4893 105.375 96.0965 105.771 95.7311Z" fill="#EBEBCA"/>
<path d="M97.5727 96.8514C98.1122 96.4378 98.7167 96.0232 99.4856 95.8887C99.5015 96.0593 99.565 96.2442 99.425 96.3996C98.9215 97.0811 98.1685 97.6511 97.2971 98.0635C97.0894 98.1664 96.8311 98.1587 96.5974 98.1915C96.6032 97.6445 97.1197 97.231 97.5727 96.8514V96.8514Z" fill="#EBEBCA"/>
<path d="M107.706 96.9859C107.657 96.4193 108.282 95.9455 109.003 95.8898C109.221 96.4597 108.443 97.0264 107.706 96.9859Z" fill="#EBEBCA"/>
<path d="M112.702 96.0692C112.924 95.9598 113.191 95.9412 113.448 95.9193C113.419 96.1107 113.407 96.3131 113.266 96.4816C112.774 97.1106 112.073 97.6456 111.256 98.034C111.018 98.1598 110.718 98.1576 110.443 98.185C110.495 97.9848 110.529 97.7747 110.673 97.5975C111.167 96.9706 111.878 96.4444 112.702 96.0692Z" fill="#EBEBCA"/>
<path d="M100.569 97.5833C101.087 97.254 101.647 96.8043 102.387 96.8743C102.274 97.4542 101.702 97.883 101.197 98.2911C100.673 98.6477 100.106 99.0842 99.3457 99.0667C99.4149 98.4541 100.04 98.0023 100.569 97.5833V97.5833Z" fill="#EBEBCA"/>
<path d="M95.1533 97.6358C95.4144 97.5132 95.7203 97.4728 96.016 97.4246C95.9641 97.6248 95.9381 97.8392 95.7909 98.0176C95.1648 98.791 94.2112 99.3752 93.161 99.7942C93.0643 99.722 92.9691 99.6487 92.8768 99.5754C93.399 98.7943 94.168 98.1007 95.1533 97.6358V97.6358Z" fill="#EBEBCA"/>
<path d="M105.367 98.8742C106.106 98.5197 107.042 98.6324 107.857 98.7374C108.152 98.8151 108.654 98.8435 108.69 99.1345C107.958 99.4234 107.09 99.3402 106.309 99.2341C105.952 99.1903 105.637 99.0514 105.367 98.8742Z" fill="#EBEBCA"/>
<path d="M100.545 99.2035C101.345 98.9333 102.27 99.046 103.101 99.174C103.544 99.2265 104.112 99.5722 103.845 99.9419C103.376 100.649 102.603 101.228 101.717 101.64C101.4 101.809 101 101.777 100.634 101.784C100.759 100.877 101.839 100.301 102.67 99.7395C102.072 99.6925 101.456 99.6947 100.886 99.5361C100.708 99.4726 100.455 99.3862 100.545 99.2035Z" fill="#EBEBCA"/>
<path d="M98.4195 100.002C98.6575 99.9037 98.9302 99.8741 99.1927 99.8326C99.1365 100.058 99.0917 100.295 98.9114 100.489C98.2752 101.199 97.4283 101.809 96.394 102.173C96.2814 102.096 96.1718 102.017 96.065 101.938C96.6205 101.158 97.4009 100.452 98.4195 100.002V100.002Z" fill="#EBEBCA"/>
<path d="M75.8908 103.396C76.1621 103.138 76.4621 102.666 76.9902 102.804C76.6598 103.037 76.3063 103.256 75.8908 103.396Z" fill="#CACACA"/>
<path d="M77.0911 103.306C77.5961 103.071 78.0794 102.704 78.7199 102.754C81.3614 102.851 84.0029 102.952 86.6445 103C89.0465 103.201 91.4615 103.301 93.8679 103.454C95.1201 103.514 96.368 103.63 97.6231 103.637C97.9621 103.627 98.268 103.744 98.5724 103.842C98.369 104.607 98.4613 105.388 98.3964 106.161C98.3026 108.641 98.1973 111.122 98.1122 113.603C98.0747 114.498 97.8294 115.375 97.6577 116.258C96.4921 121.942 95.3062 127.619 94.1521 133.308C94.1477 135.058 94.3252 136.809 94.3872 138.559C94.4031 139.598 94.6282 140.66 94.3714 141.699C93.7813 144.543 93.2432 147.399 92.6445 150.254C92.5839 150.484 92.6445 150.724 92.7311 150.943C92.392 151.556 91.9751 152.147 91.6765 152.781C91.4283 152.847 91.1744 152.912 90.9378 153H90.8541C90.7734 152.912 90.6926 152.836 90.6118 152.759C90.1155 152.639 89.6567 152.453 89.2066 152.267C81.8894 149.291 74.5506 146.348 67.2378 143.373C67.2637 143.231 67.2897 143.099 67.3171 142.957C67.3849 142.979 67.5234 143.012 67.5912 143.034C71.8615 138.1 76.0625 133.122 80.2751 128.166C80.9113 127.444 81.4639 126.678 82.2213 126.027C83.5875 124.597 84.7531 123.065 86.0977 121.623C86.3502 121.37 86.4988 121.073 86.6041 120.77C85.2653 119.412 83.9712 118.029 82.6541 116.659C81.9529 115.937 81.1623 115.259 80.6228 114.456C79.6158 113.323 78.6521 112.167 77.6004 111.058C75.9673 109.185 74.3083 107.326 72.6578 105.462C74.138 104.747 75.6124 104.025 77.0911 103.306V103.306Z" fill="#D4D4D4"/>
<path d="M116.184 106.51C117.924 106.232 119.778 106.46 121.332 107.111C123.522 107.996 125.126 109.524 126.286 111.157C128.075 113.721 128.857 116.631 128.991 119.513C129.101 122.266 128.549 125.042 127.307 127.63C126.36 129.545 125.012 131.383 123.067 132.816C121.25 134.15 118.729 135.102 116.144 134.861C114.261 134.697 112.52 133.975 111.17 132.98C108.722 131.207 107.293 128.768 106.475 126.311C105.458 123.17 105.385 119.86 106.226 116.691C106.814 114.464 107.859 112.286 109.511 110.381C111.085 108.59 113.338 106.985 116.184 106.51Z" fill="#7F141A"/>
<path d="M111.955 113.084C112.514 113.145 113.07 113.233 113.614 113.352C114.204 113.449 114.543 114.075 114.168 114.445C113.996 114.629 113.777 114.796 113.478 114.851C112.953 114.987 112.474 115.228 112.138 115.566C112.048 115.564 111.867 115.559 111.776 115.556C111.994 114.948 111.916 114.327 111.73 113.722C111.607 113.485 111.826 113.284 111.955 113.084Z" fill="black"/>
<path d="M116.495 114.142C117.855 114.029 119.162 113.671 120.396 113.232C121.176 113.427 122.081 113.633 122.552 114.184C121.977 114.541 121.18 114.325 120.514 114.46C119.831 114.606 119.185 114.837 118.545 115.064C118.203 115.177 117.907 115.393 117.529 115.424C116.997 115.341 116.557 115.085 116.15 114.828C116.212 114.597 116.137 114.243 116.495 114.142V114.142Z" fill="black"/>
<path d="M119.696 115.738C120.233 115.616 120.88 115.634 121.277 115.288C122.014 115.323 122.668 115.614 123.242 115.945C123.474 116.066 123.487 116.283 123.51 116.479C123.269 116.52 123.031 116.567 122.795 116.615C122.72 116.829 122.62 117.042 122.372 117.178C122.199 117.667 122.065 118.167 122.039 118.676C121.407 118.807 120.755 118.854 120.104 118.888C119.527 118.902 119.054 119.193 118.5 119.275C118.009 119.282 117.577 119.071 117.154 118.91C116.935 118.804 116.639 118.735 116.544 118.535C116.254 118.008 116.072 117.448 115.997 116.881C115.276 117.044 115.114 117.651 114.694 118.053C114.302 118.574 113.686 118.972 113.311 119.498C114.196 119.763 115.164 119.784 116.065 120.018C116.557 120.165 117.059 119.99 117.528 119.875C119.146 119.428 120.885 119.38 122.581 119.246C122.962 119.231 123.232 118.996 123.545 118.857C124.265 119.175 125.044 119.498 125.477 120.063C125.467 120.19 125.448 120.317 125.422 120.445C125.14 120.52 124.732 120.487 124.575 120.716C124.314 121.434 124.115 122.164 124.057 122.911C123.79 123.977 123.567 125.053 123.467 126.137C123.158 126.152 122.839 126.162 122.547 126.076C122.047 125.992 121.877 125.545 121.42 125.415C120.282 125.393 119.21 125.734 118.184 126.069C117.715 126.251 117.083 126.241 116.681 125.964C116.412 125.787 116.098 125.663 115.737 125.649C115.717 125.172 115.834 124.683 115.622 124.222C115.379 123.696 115.428 123.134 115.336 122.59C115.27 122.113 115.128 121.645 115.107 121.167C115.18 120.685 114.388 120.673 113.986 120.49C113.973 120.895 114.026 121.301 114.09 121.705C114.159 122.182 114.059 122.669 114.188 123.144C114.391 123.861 114.24 124.596 114.296 125.323C114.342 125.662 113.937 125.922 113.531 125.984C113.099 125.701 112.635 125.445 112.242 125.131C112.487 124.3 112.64 123.436 112.485 122.587C112.374 121.778 112.537 120.948 112.236 120.158C111.725 120.52 111.227 120.892 110.728 121.264C110.184 121.677 109.413 121.835 108.703 122.011C109.281 121.402 109.903 120.812 110.598 120.277C110.971 119.964 111.178 119.566 111.494 119.223C111.96 118.65 112.546 118.123 112.836 117.479C112.152 117.625 111.78 118.23 111.025 118.246C110.512 118.211 109.936 118.193 109.525 117.928C109.208 117.736 109.364 117.389 109.333 117.127C109.894 117.1 110.473 117.086 110.992 116.9C111.693 116.659 112.455 116.547 113.165 116.325C113.544 116.215 113.807 115.934 114.196 115.855C114.815 115.954 115.382 116.193 115.925 116.435C116.078 116.349 116.164 116.226 116.21 116.088C116.409 116.199 116.61 116.308 116.811 116.42C117.767 116.179 118.698 115.871 119.696 115.738V115.738Z" fill="black"/>
<path d="M117.705 117.281C118.677 117.083 119.552 116.668 120.544 116.51C120.497 116.987 120.403 117.459 120.31 117.932C119.604 118.024 118.923 118.19 118.232 118.327C117.852 118.101 117.895 117.61 117.705 117.281V117.281Z" fill="#7F141A"/>
<path d="M120.116 120.523C120.843 120.392 121.566 120.225 122.32 120.217C122.516 120.837 122.47 121.485 122.245 122.098C121.583 121.933 120.888 121.99 120.209 122.035C120.282 121.531 120.499 120.987 120.116 120.523Z" fill="#7F141A"/>
<path d="M116.734 121.343C117.204 121.22 117.667 121.086 118.135 120.954C118.203 121.399 118.377 121.831 118.441 122.276C118.057 122.582 117.396 122.525 116.893 122.647C116.803 122.215 116.73 121.78 116.734 121.343V121.343Z" fill="#7F141A"/>
<path d="M120.302 123.267C120.875 123.128 121.47 123.02 122.076 123.078C121.946 123.463 121.828 123.85 121.73 124.242C121.313 124.285 120.896 124.329 120.482 124.382C120.308 124.024 120.318 123.641 120.302 123.267V123.267Z" fill="#7F141A"/>
<path d="M117.246 123.839C117.699 123.779 118.154 123.728 118.611 123.687C118.703 124.013 118.793 124.34 118.875 124.669C118.545 124.762 118.214 124.858 117.888 124.957C117.633 124.599 117.437 124.219 117.246 123.839Z" fill="#7F141A"/>
<path d="M84.5425 130.015C84.4242 129.468 84.2136 128.921 84.2395 128.363C86.1713 133.592 88.1434 138.811 90.091 144.04C90.4675 145.123 90.9494 146.184 91.2595 147.278C90.4964 147.639 89.7592 148.033 88.9902 148.405C87.4942 142.279 86.0255 136.141 84.5425 130.015V130.015Z" fill="#A8A8A8"/>
</g>
<path d="M178.3 94.66V97.14H173.06C173.26 96.34 173.48 95.5 173.68 94.66H178.3ZM179.76 90.68H184.94V93.32H179.76V90.68ZM179.76 97.14V94.66H186.44V89.32H183.02C183.52 88.56 184.08 87.58 184.58 86.68L183 86.26C182.66 87.18 182 88.46 181.46 89.32H176.54L176.64 89.28C176.34 88.48 175.58 87.22 174.92 86.3L173.58 86.74C174.12 87.52 174.7 88.52 175.04 89.32H171.32V90.68H178.3V93.32H173.98V93.3L172.5 93.12C172.12 94.94 171.5 97.36 171 98.84L172.52 99.04L172.68 98.48H177.4C175.66 100.36 172.88 101.96 170.2 102.76C170.56 103.08 171 103.66 171.24 104.06C173.8 103.16 176.42 101.54 178.3 99.56V104.52H179.76V98.48H185.8C185.6 100.66 185.38 101.58 185.06 101.9C184.88 102.08 184.68 102.08 184.32 102.08C183.94 102.08 182.9 102.08 181.86 101.98C182.1 102.36 182.28 102.94 182.3 103.36C183.4 103.42 184.42 103.44 184.98 103.38C185.54 103.34 185.92 103.26 186.3 102.86C186.82 102.36 187.1 101 187.36 97.76C187.38 97.54 187.4 97.14 187.4 97.14H179.76Z" fill="black"/>
<path d="M165.671 43.3631L175.788 40.0689L177.447 45.1655L167.33 48.4597L165.671 43.3631ZM178.847 53.9223C178.068 54.1762 177.878 54.1117 177.674 53.4841L175.655 47.2844L179.383 46.0708L176.819 38.1976L163.83 42.4268L166.394 50.3L169.342 49.3402C170.24 53.0022 170.278 55.6398 166.408 58.2882C166.805 58.4744 167.409 58.9087 167.704 59.2333C171.868 56.1948 171.877 53.1211 170.863 48.8449L174.248 47.7427L176.267 53.9423C176.793 55.5588 177.404 55.8856 179.116 55.3283L181.968 54.3995C183.642 53.8546 183.763 52.8688 182.844 49.5292C182.413 49.5642 181.718 49.4961 181.333 49.3479C182.186 52.2885 182.232 52.8201 181.415 53.0864L178.847 53.9223Z" fill="black"/>
<path d="M140.504 15.6165C142.383 17.4613 143.771 19.2454 144.697 20.9658C143.8 21.2196 142.909 21.5295 142.09 21.8459C141.11 20.5439 139.986 19.1009 138.85 17.6736L140.504 15.6165ZM139.787 14.2434L139.67 14.4836L137.978 16.5874C137.091 15.4886 136.222 14.4306 135.422 13.4789L134.407 14.485C135.236 15.4337 136.167 16.5419 137.088 17.6938L135.722 19.3924L136.781 20.2449L137.972 18.7644C139.569 20.7678 141.11 22.7772 142.149 24.2293L143.425 23.6642L142.908 22.9663C143.69 22.6967 144.503 22.4521 145.306 22.2512C146.057 24.0618 146.259 25.7896 145.936 27.4036C146.37 27.3423 147.042 27.3691 147.447 27.4389C147.693 25.6342 147.482 23.822 146.722 21.9271C147.794 21.7113 148.791 21.5891 149.559 21.5911L149.204 20.1503C148.351 20.1573 147.273 20.3168 146.123 20.598C144.992 18.4304 143.152 16.1546 140.494 13.6831L139.787 14.2434ZM150.206 7.60903L147.222 11.3179L145.835 10.2023C145.868 8.27827 145.532 5.82543 144.987 3.94987L143.812 4.26218L143.701 4.55861L138.336 11.2284L139.396 12.0809L144.084 6.25258C144.378 7.51525 144.601 9.05573 144.598 10.3364L144.222 10.8039L146.294 12.4711L143.361 16.1177L144.436 16.9827L147.37 13.3361L152.808 17.7111C153.042 17.8992 153.057 18.0398 152.86 18.3172C152.662 18.5947 151.96 19.4674 151.139 20.4241C151.573 20.4908 152.251 20.7019 152.613 20.8903C153.603 19.6592 154.224 18.8238 154.441 18.2028C154.655 17.5537 154.437 17.1221 153.736 16.558L148.297 12.1829L151.281 8.47401L150.206 7.60903Z" fill="black"/>
<defs>
<clipPath id="clip0">
<rect width="117" height="135" fill="white" transform="translate(35 18)"/>
</clipPath>
</defs>
</svg>
